<?xml version="1.0" standalone="no"?>
<!DOCTYPE svg PUBLIC "-//W3C//DTD SVG 20010904//EN"
 "http://www.w3.org/TR/2001/REC-SVG-20010904/DTD/svg10.dtd">
<svg version="1.0" xmlns="http://www.w3.org/2000/svg"
 width="600.000000pt" height="600.000000pt" viewBox="0 0 600.000000 600.000000"
 preserveAspectRatio="xMidYMid meet">
<metadata>
Created by potrace 1.14, written by Peter Selinger 2001-2017
</metadata>
<g transform="translate(0.000000,600.000000) scale(0.100000,-0.100000)"
fill="#000000" stroke="none">
<path d="M422 3852 c-16 -15 -37 -52 -47 -82 -10 -30 -20 -59 -24 -65 -5 -9
-46 -122 -56 -155 -10 -36 -36 -107 -45 -125 -6 -11 -12 -29 -14 -40 -2 -11
-10 -33 -17 -50 -6 -16 -13 -34 -15 -40 -1 -5 -41 -118 -89 -250 -48 -132 -93
-259 -101 -282 -23 -66 -1 -120 56 -138 41 -13 267 -7 385 11 111 16 251 90
326 171 42 45 109 137 109 148 0 5 6 16 14 24 11 14 51 100 84 183 10 25 13
26 49 17 57 -15 104 -39 110 -56 3 -8 -4 -43 -16 -78 -49 -139 -35 -249 45
-329 95 -97 251 -103 398 -18 l49 28 39 -36 c42 -40 126 -73 187 -73 55 0 150
31 199 65 40 28 47 29 66 18 102 -65 222 -63 368 6 l57 27 26 -31 c54 -64 164
-97 265 -78 52 10 150 61 193 102 43 39 114 145 123 181 5 16 14 23 33 24 14
0 33 2 41 4 8 1 31 6 50 10 l35 6 2 -53 c4 -99 55 -177 142 -214 80 -35 218
-21 304 30 l40 25 36 -36 c52 -52 105 -71 192 -71 81 0 138 20 198 67 l36 29
39 -35 c20 -19 36 -36 34 -37 -2 -2 -33 -18 -70 -35 -126 -62 -200 -158 -199
-259 1 -41 5 -75 11 -92 1 -3 2 -8 1 -12 -2 -18 94 -108 132 -123 93 -35 173
-18 272 57 61 47 91 97 241 414 12 24 35 41 101 73 82 40 88 42 100 25 7 -10
13 -21 13 -26 0 -11 55 -38 78 -38 35 0 71 25 92 65 49 92 65 120 71 125 3 3
12 16 19 30 21 41 119 172 164 219 124 132 243 135 229 6 -2 -22 -10 -63 -17
-91 -20 -76 -18 -174 4 -220 51 -107 147 -153 328 -156 66 0 111 61 89 125
-13 38 -46 57 -109 64 -152 15 -155 21 -112 218 7 27 6 125 0 152 -16 72 -63
130 -131 164 -62 30 -181 34 -232 7 -36 -18 -40 -12 -19 35 7 18 33 77 56 132
23 55 51 120 62 145 12 25 23 66 26 91 4 42 2 48 -29 73 -27 23 -40 27 -71 23
-20 -3 -45 -12 -53 -21 -13 -13 -254 -571 -342 -791 -22 -56 -27 -62 -76 -82
-90 -39 -91 -39 -83 -17 39 97 21 245 -39 322 -62 79 -126 112 -224 114 -107
1 -206 -46 -291 -139 -49 -54 -79 -112 -113 -216 -25 -74 -55 -128 -87 -155
-53 -44 -116 -58 -149 -33 -22 16 -35 66 -22 86 3 6 6 12 6 15 1 3 20 44 43
91 58 118 113 285 105 318 -13 56 -62 85 -116 70 -42 -11 -57 -33 -82 -117
-10 -35 -22 -65 -27 -68 -4 -3 -8 -12 -8 -19 0 -39 -113 -241 -159 -285 -40
-38 -81 -59 -128 -66 -43 -5 -54 -3 -70 13 -43 43 -13 176 88 400 34 74 24
123 -31 156 -56 33 -104 2 -151 -98 -51 -111 -131 -185 -216 -201 -21 -4 -38
13 -43 41 -5 31 -42 97 -72 127 -151 156 -440 73 -557 -161 -25 -51 -53 -139
-50 -158 6 -35 -6 -51 -53 -80 -65 -39 -130 -57 -175 -48 -39 7 -42 23 -16 87
25 62 24 199 -1 258 -39 88 -121 163 -196 177 -220 43 -449 -149 -476 -400 -6
-56 -18 -71 -86 -107 -125 -66 -212 -25 -179 84 7 23 19 64 27 91 45 150 -47
282 -226 322 -51 12 -131 20 -170 18 -54 -3 -80 -30 -105 -107 -10 -29 -29
-78 -43 -108 -14 -30 -25 -57 -24 -60 0 -3 -5 -12 -12 -20 -6 -8 -18 -27 -25
-42 -39 -78 -152 -175 -233 -199 -62 -19 -73 -21 -165 -26 l-93 -5 16 43 c9
24 38 107 66 184 63 178 123 345 183 510 86 239 89 259 52 299 -36 38 -89 41
-125 8z m1619 -702 c76 -89 -11 -288 -145 -333 -90 -30 -147 20 -142 122 3 71
29 124 86 182 72 72 153 84 201 29z m2624 15 c25 -15 43 -69 40 -116 -4 -50
-48 -139 -86 -178 -42 -41 -86 -61 -138 -61 -32 0 -44 6 -66 32 -52 61 -23
200 57 274 78 72 134 86 193 49z m-1807 -28 c11 -24 42 -67 69 -96 l50 -53
-19 -40 c-39 -80 -123 -140 -197 -140 -28 0 -42 7 -64 34 -24 28 -28 40 -26
88 2 30 9 71 17 90 18 46 74 119 90 120 6 0 12 3 12 8 0 4 10 12 23 18 12 7
23 12 24 13 1 0 11 -19 21 -42z m1567 -698 c-36 -70 -66 -109 -82 -109 -7 0
-13 -4 -13 -9 0 -16 -51 -19 -66 -4 -24 24 -21 58 6 88 25 26 169 98 179 89 2
-2 -9 -27 -24 -55z"/>
</g>
</svg>
