<svg width="34" height="34" viewBox="0 0 34 34" fill="none" xmlns="http://www.w3.org/2000/svg">
<rect x="1" y="1" width="32" height="32" rx="16" fill="white" stroke="#A0A0A0" stroke-width="2"/>
<path d="M25 25V23C25 21.9391 24.5786 20.9217 23.8284 20.1716C23.0783 19.4214 22.0609 19 21 19H13C11.9391 19 10.9217 19.4214 10.1716 20.1716C9.42143 20.9217 9 21.9391 9 23V25" stroke="#A0A0A0" stroke-width="2" stroke-linecap="round" stroke-linejoin="round"/>
<path d="M17 15C19.2091 15 21 13.2091 21 11C21 8.79086 19.2091 7 17 7C14.7909 7 13 8.79086 13 11C13 13.2091 14.7909 15 17 15Z" stroke="#A0A0A0" stroke-width="2" stroke-linecap="round" stroke-linejoin="round"/>
</svg>
